<svg xmlns="http://www.w3.org/2000/svg" width="18" height="15" viewBox="0 0 18 15" fill="none">
  <path
    d="M7.69167 0.737848C8.28629 -0.245949 9.71371 -0.24595 10.3083 0.737847L17.5274 12.6817C18.1429 13.7001 17.4093 15 16.219 15H1.78098C0.590694 15 -0.142896 13.7001 0.472645 12.6817L7.69167 0.737848Z"
    fill="#FF2D20" />
  <path
    d="M8.31863 10.1444H9.50466L9.80405 6.69718L9.86163 5.19531H7.96167L8.01924 6.69718L8.31863 10.1444ZM8.9174 12.8357C9.49315 12.8357 9.93072 12.4627 9.93072 11.9386C9.93072 11.4144 9.49315 11.0516 8.9174 11.0516C8.33014 11.0516 7.89258 11.4144 7.89258 11.9386C7.89258 12.4627 8.31863 12.8357 8.9174 12.8357Z"
    fill="#1A1D1F" />
</svg>