<svg width="14" height="14" viewBox="0 0 14 14" fill="none" xmlns="http://www.w3.org/2000/svg">
  <path fill-rule="evenodd" clip-rule="evenodd"
    d="M0 7C0 3.13438 3.13438 0 7 0C10.8656 0 14 3.13438 14 7C14 10.8656 10.8656 14 7 14C3.13438 14 0 10.8656 0 7ZM1.1875 7C1.1875 10.2094 3.79063 12.8125 7 12.8125C10.2094 12.8125 12.8125 10.2094 12.8125 7C12.8125 3.79063 10.2094 1.1875 7 1.1875C3.79063 1.1875 1.1875 3.79063 1.1875 7ZM6.25 4.25C6.25 4.66421 6.58579 5 7 5C7.41421 5 7.75 4.66421 7.75 4.25C7.75 3.83579 7.41421 3.5 7 3.5C6.58579 3.5 6.25 3.83579 6.25 4.25ZM6.5 6.125C6.5 6.05625 6.55625 6 6.625 6H7.375C7.44375 6 7.5 6.05625 7.5 6.125V10.375C7.5 10.4438 7.44375 10.5 7.375 10.5H6.625C6.55625 10.5 6.5 10.4438 6.5 10.375V6.125Z"
    fill="white" />
</svg>