<svg width="16" height="16" viewBox="0 0 16 16" fill="none" xmlns="http://www.w3.org/2000/svg">
<g id="1.&#233;&#128;&#154;&#231;&#148;&#168;/2.Icon&#229;&#155;&#190;&#230;&#160;&#135;/Line/setting">
<g id="&#233;&#161;&#181;&#233;&#157;&#162;-1">
<path id="&#229;&#189;&#162;&#231;&#138;&#182;&#231;&#187;&#147;&#229;&#144;&#136;" fill-rule="evenodd" clip-rule="evenodd" d="M10.5528 3C11.1979 3 11.7819 3.26148 12.2047 3.68423C12.6274 4.10698 12.8889 4.69101 12.8889 5.33611C12.8889 5.98121 12.6274 6.56524 12.2047 6.98799C11.7819 7.41074 11.1979 7.67222 10.5528 7.67222C9.90768 7.67222 9.32365 7.41074 8.9009 6.98799C8.47815 6.56524 8.21667 5.98121 8.21667 5.33611C8.21667 4.69101 8.47815 4.10698 8.9009 3.68423C9.32365 3.26148 9.90768 3 10.5528 3ZM10.5528 4.12778C10.2191 4.12778 9.91702 4.26302 9.69836 4.48169C9.47969 4.70036 9.34444 5.00244 9.34444 5.33611C9.34444 5.66978 9.47969 5.97187 9.69836 6.19053C9.91702 6.4092 10.2191 6.54444 10.5528 6.54444C10.8864 6.54444 11.1885 6.4092 11.4072 6.19053C11.6259 5.97187 11.7611 5.66978 11.7611 5.33611C11.7611 5.00244 11.6259 4.70036 11.4072 4.48169C11.1885 4.26302 10.8864 4.12778 10.5528 4.12778ZM7.66107 4.61098C7.60304 4.84311 7.57222 5.08601 7.57222 5.33611C7.57222 5.58617 7.60303 5.82904 7.66104 6.06113L2.40278 6.06111C2.29155 6.06111 2.19086 6.01603 2.11797 5.94314C2.04508 5.87025 2 5.76956 2 5.65833V5.01389C2 4.90266 2.04508 4.80197 2.11797 4.72908C2.19086 4.65619 2.29155 4.61111 2.40278 4.61111L7.66107 4.61098ZM14.0972 4.61111C14.2084 4.61111 14.3091 4.65619 14.382 4.72908C14.4549 4.80197 14.5 4.90266 14.5 5.01389V5.65833C14.5 5.76956 14.4549 5.87025 14.382 5.94314C14.3091 6.01603 14.2084 6.06111 14.0972 6.06111L13.4445 6.06112C13.5025 5.82904 13.5333 5.58617 13.5333 5.33611C13.5333 5.08602 13.5025 4.84312 13.4445 4.611L14.0972 4.61111Z" fill="white"/>
<path id="&#229;&#189;&#162;&#231;&#138;&#182;&#231;&#187;&#147;&#229;&#144;&#136;_2" fill-rule="evenodd" clip-rule="evenodd" d="M5.94722 8C5.30212 8 4.71809 8.26148 4.29534 8.68423C3.87259 9.10698 3.61111 9.69101 3.61111 10.3361C3.61111 10.9812 3.87259 11.5652 4.29534 11.988C4.71809 12.4107 5.30212 12.6722 5.94722 12.6722C6.59232 12.6722 7.17635 12.4107 7.5991 11.988C8.02185 11.5652 8.28333 10.9812 8.28333 10.3361C8.28333 9.69101 8.02185 9.10698 7.5991 8.68423C7.17635 8.26148 6.59232 8 5.94722 8ZM5.94722 9.12778C6.28089 9.12778 6.58298 9.26302 6.80164 9.48169C7.02031 9.70036 7.15556 10.0024 7.15556 10.3361C7.15556 10.6698 7.02031 10.9719 6.80164 11.1905C6.58298 11.4092 6.28089 11.5444 5.94722 11.5444C5.61355 11.5444 5.31147 11.4092 5.0928 11.1905C4.87414 10.9719 4.73889 10.6698 4.73889 10.3361C4.73889 10.0024 4.87414 9.70036 5.0928 9.48169C5.31147 9.26302 5.61355 9.12778 5.94722 9.12778ZM8.83893 9.61098C8.89696 9.84311 8.92778 10.086 8.92778 10.3361C8.92778 10.5862 8.89697 10.829 8.83896 11.0611L14.0972 11.0611C14.2084 11.0611 14.3091 11.016 14.382 10.9431C14.4549 10.8703 14.5 10.7696 14.5 10.6583V10.0139C14.5 9.90266 14.4549 9.80197 14.382 9.72908C14.3091 9.65619 14.2084 9.61111 14.0972 9.61111L8.83893 9.61098ZM2.40278 9.61111C2.29155 9.61111 2.19086 9.65619 2.11797 9.72908C2.04508 9.80197 2 9.90266 2 10.0139V10.6583C2 10.7696 2.04508 10.8703 2.11797 10.9431C2.19086 11.016 2.29155 11.0611 2.40278 11.0611L3.05548 11.0611C2.99747 10.829 2.96667 10.5862 2.96667 10.3361C2.96667 10.086 2.99748 9.84312 3.05551 9.611L2.40278 9.61111Z" fill="white"/>
</g>
</g>
</svg>
