<svg width="27" height="26" viewBox="0 0 27 26" fill="none" xmlns="http://www.w3.org/2000/svg">
    <path fill-rule="evenodd" clip-rule="evenodd"
        d="M13.5 1.625C7.21836 1.625 2.125 6.71836 2.125 13C2.125 19.2816 7.21836 24.375 13.5 24.375C19.7816 24.375 24.875 19.2816 24.875 13C24.875 6.71836 19.7816 1.625 13.5 1.625ZM18.4131 9.28535L13.0658 16.6994C12.7434 17.1488 12.0756 17.1488 11.7531 16.6994L8.58691 12.3119C8.49043 12.1773 8.58691 11.9895 8.75195 11.9895H9.94277C10.2018 11.9895 10.448 12.1139 10.6004 12.3271L12.4082 14.8357L16.3996 9.30059C16.552 9.08984 16.7957 8.96289 17.0572 8.96289H18.248C18.4131 8.96289 18.5096 9.15078 18.4131 9.28535Z"
        fill="white" />
</svg>
    